<svg xmlns="http://www.w3.org/2000/svg" xmlns:xlink="http://www.w3.org/1999/xlink" xmlns:lucid="lucid" width="1460" height="700.23"><g transform="translate(-20 0.23252990103821958)" lucid:page-tab-id="0_0"><path d="M0 0h1870.4v1323.2H0z" fill="#fff"/><path d="M60 40h343.35v53.2H60z" fill="#fff" fill-opacity="0"/><use xlink:href="#a" transform="matrix(1,0,0,1,65,45) translate(0 14.4)"/><use xlink:href="#b" transform="matrix(1,0,0,1,65,45) translate(82.80000000000001 14.4)"/><use xlink:href="#c" transform="matrix(1,0,0,1,65,45) translate(124.65 14.4)"/><use xlink:href="#d" transform="matrix(1,0,0,1,65,45) translate(175.45000000000002 14.4)"/><use xlink:href="#e" transform="matrix(1,0,0,1,65,45) translate(201.4 14.4)"/><use xlink:href="#f" transform="matrix(1,0,0,1,65,45) translate(258.3 14.4)"/><use xlink:href="#g" transform="matrix(1,0,0,1,65,45) translate(283.3 14.4)"/><use xlink:href="#h" transform="matrix(1,0,0,1,65,45) translate(0 36)"/><use xlink:href="#i" transform="matrix(1,0,0,1,65,45) translate(62.95 36)"/><path d="M309.88 340c5.6 0 10.12 4.53 10.12 10.12v80.93c0 5.58-4.53 10.1-10.12 10.1H130.12c-5.6 0-10.12-4.52-10.12-10.1v-80.93c0-5.6 4.53-10.12 10.12-10.12z" stroke="#000" stroke-width="2" fill="#b2b2b2"/><path d="M120 388h200" stroke="#000" stroke-width="2" fill="none"/><use xlink:href="#j" transform="matrix(1,0,0,1,140,340) translate(60 27.6)"/><use xlink:href="#k" transform="matrix(1,0,0,1,140,398) translate(45.074999999999996 20.6)"/><path d="M799 40h260v60.7H799z" fill="#fff"/><path d="M1059 40H799v60.7h260M851 40v60.7" stroke="#000" stroke-width="2" fill="none"/><use xlink:href="#l" transform="matrix(1,0,0,1,812,52.13951794062292) translate(2 22.1)"/><use xlink:href="#m" transform="matrix(1,0,0,1,864,52.13951794062292) translate(5.625 14.4)"/><use xlink:href="#n" transform="matrix(1,0,0,1,864,52.13951794062292) translate(80.525 14.4)"/><use xlink:href="#o" transform="matrix(1,0,0,1,864,52.13951794062292) translate(105.525 14.4)"/><use xlink:href="#p" transform="matrix(1,0,0,1,864,52.13951794062292) translate(46.575 36)"/><path d="M549.88 460c5.6 0 10.12 4.53 10.12 10.12v80.93c0 5.58-4.53 10.1-10.12 10.1H370.12c-5.6 0-10.12-4.52-10.12-10.1v-80.93c0-5.6 4.53-10.12 10.12-10.12z" stroke="#000" stroke-width="2" fill="#b2b2b2"/><path d="M360 508h200" stroke="#000" stroke-width="2" fill="none"/><use xlink:href="#q" transform="matrix(1,0,0,1,380,460) translate(60 27.6)"/><use xlink:href="#r" transform="matrix(1,0,0,1,380,518) translate(60.55 20.6)"/><path d="M309.88 470c5.6 0 10.12 4.53 10.12 10.12v80.93c0 5.58-4.53 10.1-10.12 10.1H130.12c-5.6 0-10.12-4.52-10.12-10.1v-80.93c0-5.6 4.53-10.12 10.12-10.12z" stroke="#000" stroke-width="2" fill="#b2b2b2"/><path d="M120 518h200" stroke="#000" stroke-width="2" fill="none"/><use xlink:href="#s" transform="matrix(1,0,0,1,140,470) translate(60 27.6)"/><use xlink:href="#t" transform="matrix(1,0,0,1,140,528) translate(28.625 14.4)"/><use xlink:href="#u" transform="matrix(1,0,0,1,140,528) translate(53.574999999999996 36)"/><path d="M460 580.66V659" stroke="#000" stroke-width="2" fill="none"/><path d="M460 565.4l4.64 14.26h-9.28z" stroke="#000" stroke-width="2"/><path d="M460 658.97V660" stroke="#000" stroke-width="2" fill="none"/><path d="M280 620h240v60H280z" stroke="#000" stroke-opacity="0" stroke-width="2" fill="#fff" fill-opacity="0"/><use xlink:href="#v" transform="matrix(1,0,0,1,285,625) translate(57.55 17.525)"/><use xlink:href="#w" transform="matrix(1,0,0,1,285,625) translate(106.55 17.525)"/><use xlink:href="#x" transform="matrix(1,0,0,1,285,625) translate(60.05 39.125)"/><use xlink:href="#y" transform="matrix(1,0,0,1,285,625) translate(94 39.125)"/><use xlink:href="#z" transform="matrix(1,0,0,1,285,625) translate(119 39.125)"/><path d="M280 590.66v71" stroke="#000" stroke-width="2" fill="none"/><path d="M280 575.4l4.64 14.26h-9.28z" stroke="#000" stroke-width="2"/><path d="M280 665.67h-1v-4.03h1z"/><path d="M100 600h240v60H100z" stroke="#000" stroke-opacity="0" stroke-width="2" fill="#fff" fill-opacity="0"/><use xlink:href="#A" transform="matrix(1,0,0,1,105,605) translate(68.025 17.525)"/><use xlink:href="#B" transform="matrix(1,0,0,1,105,605) translate(56.55 39.125)"/><use xlink:href="#C" transform="matrix(1,0,0,1,105,605) translate(105.55 39.125)"/><path d="M579.5 510.58H640V519" stroke="#000" stroke-width="2" fill="none"/><path d="M564.24 510.58l14.26-4.63v9.27z" stroke="#000" stroke-width="2"/><path d="M641 520h-2v-1.03h2z"/><path d="M520 520h240v60H520z" stroke="#000" stroke-opacity="0" stroke-width="2" fill="#fff" fill-opacity="0"/><use xlink:href="#D" transform="matrix(1,0,0,1,525,525) translate(54.099999999999994 30.025)"/><use xlink:href="#E" transform="matrix(1,0,0,1,525,525) translate(131.9 30.025)"/><path d="M220 320.5V261" stroke="#000" stroke-width="2" fill="none"/><path d="M220 335.76l-4.64-14.26h9.28z" stroke="#000" stroke-width="2"/><path d="M220 261.03V260" stroke="#000" stroke-width="2" fill="none"/><path d="M40 260h240v60H40z" stroke="#000" stroke-opacity="0" stroke-width="2" fill="#fff" fill-opacity="0"/><use xlink:href="#F" transform="matrix(1,0,0,1,45,265) translate(66.57499999999999 30.025)"/><path d="M779.5 70.35H460V458" stroke="#834187" stroke-width="2" fill="none"/><path d="M794.76 70.35l-14.26 4.63V65.7z" stroke="#834187" stroke-width="2" fill="#834187"/><path d="M461 459h-2v-1.03h2z" fill="#834187"/><path d="M520 80h240v60H520z" stroke="#834187" stroke-width="2" fill="#fff" fill-opacity="0"/><use xlink:href="#G" transform="matrix(1,0,0,1,525,85) translate(51.14999999999999 30.025)"/><use xlink:href="#H" transform="matrix(1,0,0,1,525,85) translate(140 30.025)"/><path d="M280 120h240v60H280z" stroke="#000" stroke-opacity="0" stroke-width="2" fill="#fff" fill-opacity="0"/><use xlink:href="#I" transform="matrix(1,0,0,1,285,125) translate(83.6 17.525)"/><use xlink:href="#J" transform="matrix(1,0,0,1,285,125) translate(97.525 39.125)"/><path d="M322 520.58h21V180h461v-59.8" stroke="#0c7cba" stroke-width="2" fill="none"/><path d="M322.03 521.58H321v-2h1.03z" fill="#0c7cba"/><path d="M804 104.93l4.64 14.27h-9.28z" stroke="#0c7cba" stroke-width="2" fill="#0c7cba"/><path d="M322 390.58h552.67V120.2" stroke="#d92d2d" stroke-width="2" fill="none"/><path d="M322.03 391.58H321v-2h1.03z" fill="#d92d2d"/><path d="M874.67 104.93l4.63 14.27h-9.27z" stroke="#d92d2d" stroke-width="2" fill="#d92d2d"/><path d="M559 341.16h240v60H559z" stroke="#000" stroke-opacity="0" stroke-width="2" fill="#fff" fill-opacity="0"/><use xlink:href="#K" transform="matrix(1,0,0,1,564,346.1626495051896) translate(29.099999999999994 30.025)"/><use xlink:href="#L" transform="matrix(1,0,0,1,564,346.1626495051896) translate(110 30.025)"/><path d="M838.67 102.7V210H330v282.83" stroke="#0c7cba" stroke-width="2" fill="none"/><path d="M839.67 102.72h-2v-1.02h2z" fill="#0c7cba"/><path d="M315.23 493.24l14.14-5.03.25 9.28z" stroke="#0c7cba" stroke-width="2" fill="#0c7cba"/><path d="M520 200h240v60H520z" stroke="#000" stroke-opacity="0" stroke-width="2" fill="#fff" fill-opacity="0"/><use xlink:href="#M" transform="matrix(1,0,0,1,525,205) translate(14.099999999999994 30.025)"/><use xlink:href="#N" transform="matrix(1,0,0,1,525,205) translate(108.05 30.025)"/><use xlink:href="#O" transform="matrix(1,0,0,1,525,205) translate(177.95000000000002 30.025)"/><path d="M1077.5 70.35H1258" stroke="#834187" stroke-width="2" fill="none"/><path d="M1062.24 70.35l14.26-4.64V75z" stroke="#834187" stroke-width="2" fill="#834187"/><path d="M1259 71.35h-1.03v-2h1.03z" fill="#834187"/><path d="M1020 20h240v60h-240z" stroke="#000" stroke-opacity="0" stroke-width="2" fill="#fff" fill-opacity="0"/><g><use xlink:href="#P" transform="matrix(1,0,0,1,1025,25) translate(96.05 30.025)"/></g><path d="M1449.88 19.77c5.6 0 10.12 4.53 10.12 10.1v80.94c0 5.6-4.53 10.13-10.12 10.13h-179.76c-5.6 0-10.12-4.53-10.12-10.12V29.9c0-5.58 4.53-10.1 10.12-10.1z" stroke="#000" stroke-width="2" fill="#b2b2b2"/><path d="M1260 67.77h200" stroke="#000" stroke-width="2" fill="none"/><g><use xlink:href="#Q" transform="matrix(1,0,0,1,1280,19.76747009896178) translate(60 27.6)"/></g><g><use xlink:href="#R" transform="matrix(1,0,0,1,1280,77.76747009896178) translate(58.575 20.6)"/></g><path d="M1449.88 239.42c5.6 0 10.12 4.53 10.12 10.1v80.95c0 5.58-4.53 10.1-10.12 10.1h-179.76c-5.6 0-10.12-4.52-10.12-10.1v-80.94c0-5.58 4.53-10.1 10.12-10.1z" stroke="#000" stroke-width="2" fill="#b2b2b2"/><path d="M1260 287.42h200" stroke="#000" stroke-width="2" fill="none"/><g><use xlink:href="#S" transform="matrix(1,0,0,1,1280,239.4186752474045) translate(60 27.6)"/></g><g><use xlink:href="#T" transform="matrix(1,0,0,1,1280,297.4186752474045) translate(42.025 14.4)"/><use xlink:href="#U" transform="matrix(1,0,0,1,1280,297.4186752474045) translate(107.975 14.4)"/><use xlink:href="#V" transform="matrix(1,0,0,1,1280,297.4186752474045) translate(30.599999999999994 36)"/></g><path d="M929 102.7V290h311.5" stroke="#fcc438" stroke-width="2" fill="none"/><path d="M930 102.72h-2v-1.02h2z" fill="#fcc438"/><path d="M1255.76 290l-14.26 4.64v-9.28z" stroke="#fcc438" stroke-width="2" fill="#fcc438"/><path d="M940 240h240v60H940z" stroke="#000" stroke-opacity="0" stroke-width="2" fill="#fff" fill-opacity="0"/><g><use xlink:href="#W" transform="matrix(1,0,0,1,945,245) translate(1.6999999999999886 30.025)"/><use xlink:href="#X" transform="matrix(1,0,0,1,945,245) translate(67.64999999999999 30.025)"/><use xlink:href="#Y" transform="matrix(1,0,0,1,945,245) translate(82.64999999999999 30.025)"/><use xlink:href="#Z" transform="matrix(1,0,0,1,945,245) translate(155.5 30.025)"/></g><path d="M1449.88 358.84c5.6 0 10.12 4.53 10.12 10.1v80.94c0 5.6-4.53 10.12-10.12 10.12h-179.76c-5.6 0-10.12-4.53-10.12-10.12v-80.93c0-5.58 4.53-10.1 10.12-10.1z" stroke="#000" stroke-width="2" fill="#b2b2b2"/><path d="M1260 406.84h200" stroke="#000" stroke-width="2" fill="none"/><g><use xlink:href="#aa" transform="matrix(1,0,0,1,1280,358.837350494809) translate(52.5 27.6)"/></g><g><use xlink:href="#ab" transform="matrix(1,0,0,1,1280,416.837350494809) translate(37.625 14.4)"/><use xlink:href="#ac" transform="matrix(1,0,0,1,1280,416.837350494809) translate(43.599999999999994 36)"/></g><path d="M902 102.7v306.72h338.5" stroke="#fcc438" stroke-width="2" fill="none"/><path d="M903 102.72h-2v-1.02h2z" fill="#fcc438"/><path d="M1255.76 409.42l-14.26 4.63v-9.27z" stroke="#fcc438" stroke-width="2" fill="#fcc438"/><defs><path fill="#0c7cba" d="M30-248c118-7 216 8 213 122C240-48 200 0 122 0H30v-248zM63-27c89 8 146-16 146-99s-60-101-146-95v194" id="ad"/><path fill="#0c7cba" d="M24-231v-30h32v30H24zM24 0v-190h32V0H24" id="ae"/><path fill="#0c7cba" d="M141-36C126-15 110 5 73 4 37 3 15-17 15-53c-1-64 63-63 125-63 3-35-9-54-41-54-24 1-41 7-42 31l-33-3c5-37 33-52 76-52 45 0 72 20 72 64v82c-1 20 7 32 28 27v20c-31 9-61-2-59-35zM48-53c0 20 12 33 32 33 41-3 63-29 60-74-43 2-92-5-92 41" id="af"/><path fill="#0c7cba" d="M177-190C167-65 218 103 67 71c-23-6-38-20-44-43l32-5c15 47 100 32 89-28v-30C133-14 115 1 83 1 29 1 15-40 15-95c0-56 16-97 71-98 29-1 48 16 59 35 1-10 0-23 2-32h30zM94-22c36 0 50-32 50-73 0-42-14-75-50-75-39 0-46 34-46 75s6 73 46 73" id="ag"/><path fill="#0c7cba" d="M114-163C36-179 61-72 57 0H25l-1-190h30c1 12-1 29 2 39 6-27 23-49 58-41v29" id="ah"/><path fill="#0c7cba" d="M210-169c-67 3-38 105-44 169h-31v-121c0-29-5-50-35-48C34-165 62-65 56 0H25l-1-190h30c1 10-1 24 2 32 10-44 99-50 107 0 11-21 27-35 58-36 85-2 47 119 55 194h-31v-121c0-29-5-49-35-48" id="ai"/><g id="a"><use transform="matrix(0.05,0,0,0.05,0,0)" xlink:href="#ad"/><use transform="matrix(0.05,0,0,0.05,12.950000000000001,0)" xlink:href="#ae"/><use transform="matrix(0.05,0,0,0.05,16.900000000000002,0)" xlink:href="#af"/><use transform="matrix(0.05,0,0,0.05,26.900000000000002,0)" xlink:href="#ag"/><use transform="matrix(0.05,0,0,0.05,36.900000000000006,0)" xlink:href="#ah"/><use transform="matrix(0.05,0,0,0.05,42.85000000000001,0)" xlink:href="#af"/><use transform="matrix(0.05,0,0,0.05,52.85,0)" xlink:href="#ai"/><use transform="matrix(0.05,0,0,0.05,67.80000000000001,0)" xlink:href="#af"/></g><path fill="#0c7cba" d="M63-220v92h138v28H63V0H30v-248h175v28H63" id="aj"/><g id="b"><use transform="matrix(0.05,0,0,0.05,0,0)" xlink:href="#ad"/><use transform="matrix(0.05,0,0,0.05,12.950000000000001,0)" xlink:href="#aj"/><use transform="matrix(0.05,0,0,0.05,23.900000000000002,0)" xlink:href="#ad"/></g><path fill="#0c7cba" d="M87 75C49 33 22-17 22-94c0-76 28-126 65-167h31c-38 41-64 92-64 168S80 34 118 75H87" id="ak"/><path fill="#0c7cba" d="M190 0L58-211 59 0H30v-248h39L202-35l-2-213h31V0h-41" id="al"/><path fill="#0c7cba" d="M108 0H70L1-190h34L89-25l56-165h34" id="am"/><path fill="#0c7cba" d="M100-194c63 0 86 42 84 106H49c0 40 14 67 53 68 26 1 43-12 49-29l28 8c-11 28-37 45-77 45C44 4 14-33 15-96c1-61 26-98 85-98zm52 81c6-60-76-77-97-28-3 7-6 17-6 28h103" id="an"/><path fill="#0c7cba" d="M24 0v-261h32V0H24" id="ao"/><g id="c"><use transform="matrix(0.05,0,0,0.05,0,0)" xlink:href="#ak"/><use transform="matrix(0.05,0,0,0.05,5.95,0)" xlink:href="#al"/><use transform="matrix(0.05,0,0,0.05,18.900000000000002,0)" xlink:href="#ae"/><use transform="matrix(0.05,0,0,0.05,22.85,0)" xlink:href="#am"/><use transform="matrix(0.05,0,0,0.05,31.85,0)" xlink:href="#an"/><use transform="matrix(0.05,0,0,0.05,41.85,0)" xlink:href="#ao"/></g><path fill="#0c7cba" d="M101-251c82-7 93 87 43 132L82-64C71-53 59-42 53-27h129V0H18c2-99 128-94 128-182 0-28-16-43-45-43s-46 15-49 41l-32-3c6-41 34-60 81-64" id="ap"/><path fill="#0c7cba" d="M33-261c38 41 65 92 65 168S71 34 33 75H2C39 34 66-17 66-93S39-220 2-261h31" id="aq"/><path fill="#0c7cba" d="M33-154v-36h34v36H33zM33 0v-36h34V0H33" id="ar"/><g id="d"><use transform="matrix(0.05,0,0,0.05,0,0)" xlink:href="#ap"/><use transform="matrix(0.05,0,0,0.05,10,0)" xlink:href="#aq"/><use transform="matrix(0.05,0,0,0.05,15.949999999999998,0)" xlink:href="#ar"/></g><path fill="#0c7cba" d="M135-143c-3-34-86-38-87 0 15 53 115 12 119 90S17 21 10-45l28-5c4 36 97 45 98 0-10-56-113-15-118-90-4-57 82-63 122-42 12 7 21 19 24 35" id="as"/><path fill="#0c7cba" d="M59-47c-2 24 18 29 38 22v24C64 9 27 4 27-40v-127H5v-23h24l9-43h21v43h35v23H59v120" id="at"/><path fill="#0c7cba" d="M85-194c31 0 48 13 60 33l-1-100h32l1 261h-30c-2-10 0-23-3-31C134-8 116 4 85 4 32 4 16-35 15-94c0-66 23-100 70-100zm9 24c-40 0-46 34-46 75 0 40 6 74 45 74 42 0 51-32 51-76 0-42-9-74-50-73" id="au"/><path fill="#0c7cba" d="M100-194c62-1 85 37 85 99 1 63-27 99-86 99S16-35 15-95c0-66 28-99 85-99zM99-20c44 1 53-31 53-75 0-43-8-75-51-75s-53 32-53 75 10 74 51 75" id="av"/><g id="e"><use transform="matrix(0.05,0,0,0.05,0,0)" xlink:href="#ao"/><use transform="matrix(0.05,0,0,0.05,3.95,0)" xlink:href="#ae"/><use transform="matrix(0.05,0,0,0.05,7.9,0)" xlink:href="#as"/><use transform="matrix(0.05,0,0,0.05,16.9,0)" xlink:href="#at"/><use transform="matrix(0.05,0,0,0.05,21.9,0)" xlink:href="#af"/><use transform="matrix(0.05,0,0,0.05,31.899999999999995,0)" xlink:href="#au"/><use transform="matrix(0.05,0,0,0.05,41.9,0)" xlink:href="#av"/></g><g id="f"><use transform="matrix(0.05,0,0,0.05,0,0)" xlink:href="#au"/><use transform="matrix(0.05,0,0,0.05,10,0)" xlink:href="#an"/></g><g id="g"><use transform="matrix(0.05,0,0,0.05,0,0)" xlink:href="#au"/><use transform="matrix(0.05,0,0,0.05,10,0)" xlink:href="#af"/><use transform="matrix(0.05,0,0,0.05,20,0)" xlink:href="#at"/><use transform="matrix(0.05,0,0,0.05,25,0)" xlink:href="#av"/><use transform="matrix(0.05,0,0,0.05,35,0)" xlink:href="#as"/></g><path fill="#0c7cba" d="M100-194c62-1 85 37 85 99 1 63-27 99-86 99S16-35 15-95c0-66 28-99 85-99zM99-20c44 1 53-31 53-75 0-43-8-75-51-75s-53 32-53 75 10 74 51 75zM76-211c8-23 27-35 38-54h36v5l-58 49H76" id="aw"/><path fill="#0c7cba" d="M117-194c89-4 53 116 60 194h-32v-121c0-31-8-49-39-48C34-167 62-67 57 0H25l-1-190h30c1 10-1 24 2 32 11-22 29-35 61-36" id="ax"/><g id="h"><use transform="matrix(0.05,0,0,0.05,0,0)" xlink:href="#ag"/><use transform="matrix(0.05,0,0,0.05,10,0)" xlink:href="#an"/><use transform="matrix(0.05,0,0,0.05,20,0)" xlink:href="#as"/><use transform="matrix(0.05,0,0,0.05,29,0)" xlink:href="#at"/><use transform="matrix(0.05,0,0,0.05,34,0)" xlink:href="#ae"/><use transform="matrix(0.05,0,0,0.05,37.95,0)" xlink:href="#aw"/><use transform="matrix(0.05,0,0,0.05,47.95,0)" xlink:href="#ax"/></g><path fill="#0c7cba" d="M84 4C-5 8 30-112 23-190h32v120c0 31 7 50 39 49 72-2 45-101 50-169h31l1 190h-30c-1-10 1-25-2-33-11 22-28 36-60 37" id="ay"/><path fill="#0c7cba" d="M16-82v-28h88v28H16" id="az"/><path fill="#0c7cba" d="M115-194c55 1 70 41 70 98S169 2 115 4C84 4 66-9 55-30l1 105H24l-1-265h31l2 30c10-21 28-34 59-34zm-8 174c40 0 45-34 45-75s-6-73-45-74c-42 0-51 32-51 76 0 43 10 73 51 73" id="aA"/><path fill="#0c7cba" d="M101-234c-31-9-42 10-38 44h38v23H63V0H32v-167H5v-23h27c-7-52 17-82 69-68v24" id="aB"/><g id="i"><use transform="matrix(0.05,0,0,0.05,0,0)" xlink:href="#ay"/><use transform="matrix(0.05,0,0,0.05,10,0)" xlink:href="#as"/><use transform="matrix(0.05,0,0,0.05,19,0)" xlink:href="#ay"/><use transform="matrix(0.05,0,0,0.05,29,0)" xlink:href="#af"/><use transform="matrix(0.05,0,0,0.05,39,0)" xlink:href="#ah"/><use transform="matrix(0.05,0,0,0.05,44.95,0)" xlink:href="#ae"/><use transform="matrix(0.05,0,0,0.05,48.900000000000006,0)" xlink:href="#av"/><use transform="matrix(0.05,0,0,0.05,58.900000000000006,0)" xlink:href="#az"/><use transform="matrix(0.05,0,0,0.05,64.85000000000001,0)" xlink:href="#aA"/><use transform="matrix(0.05,0,0,0.05,74.85000000000001,0)" xlink:href="#ah"/><use transform="matrix(0.05,0,0,0.05,80.80000000000001,0)" xlink:href="#av"/><use transform="matrix(0.05,0,0,0.05,90.80000000000001,0)" xlink:href="#aB"/><use transform="matrix(0.05,0,0,0.05,95.80000000000001,0)" xlink:href="#an"/><use transform="matrix(0.05,0,0,0.05,105.80000000000001,0)" xlink:href="#as"/><use transform="matrix(0.05,0,0,0.05,114.80000000000001,0)" xlink:href="#av"/><use transform="matrix(0.05,0,0,0.05,124.80000000000001,0)" xlink:href="#ah"/></g><path d="M128-127c34 4 56 21 59 58 7 91-148 94-172 28-4-9-6-17-7-26l51-5c1 24 16 35 40 36 23 0 39-12 38-36-1-31-31-36-65-34v-40c32 2 59-3 59-33 0-20-13-33-34-33s-33 13-35 32l-50-3c6-44 37-68 86-68 50 0 83 20 83 66 0 35-22 52-53 58" id="aC"/><path d="M24 0v-54h51V0H24" id="aD"/><path d="M165-50V0h-47v-50H5v-38l105-160h55v161h33v37h-33zm-47-37l2-116L46-87h72" id="aE"/><path d="M23 0v-37h61v-169l-59 37v-38l62-41h46v211h57V0H23" id="aF"/><g id="j"><use transform="matrix(0.05,0,0,0.05,0,0)" xlink:href="#aC"/><use transform="matrix(0.05,0,0,0.05,10,0)" xlink:href="#aD"/><use transform="matrix(0.05,0,0,0.05,15,0)" xlink:href="#aE"/><use transform="matrix(0.05,0,0,0.05,25,0)" xlink:href="#aD"/><use transform="matrix(0.05,0,0,0.05,30,0)" xlink:href="#aF"/></g><path d="M190-63c-7 42-38 67-86 67-59 0-84-38-90-98-12-110 154-137 174-36l-49 2c-2-19-15-32-35-32-30 0-35 28-38 64-6 74 65 87 74 30" id="aG"/><path d="M135-150c-39-12-60 13-60 57V0H25l-1-190h47c2 13-1 29 3 40 6-28 27-53 61-41v41" id="aH"/><path d="M185-48c-13 30-37 53-82 52C43 2 14-33 14-96s30-98 90-98c62 0 83 45 84 108H66c0 31 8 55 39 56 18 0 30-7 34-22zm-45-69c5-46-57-63-70-21-2 6-4 13-4 21h74zm-67-91v-5l45-51h45v8l-60 48H73" id="aI"/><path d="M88-194c31-1 46 15 58 34l-1-101h50l1 261h-48c-2-10 0-23-3-31C134-8 116 4 84 4 32 4 16-41 15-95c0-56 19-97 73-99zm17 164c33 0 40-30 41-66 1-37-9-64-41-64s-38 30-39 65c0 43 13 65 39 65" id="aJ"/><path d="M25-224v-37h50v37H25zM25 0v-190h50V0H25" id="aK"/><path d="M115-3C79 11 28 4 28-45v-112H4v-33h27l15-45h31v45h36v33H77v99c-1 23 16 31 38 25v30" id="aL"/><path d="M110-194c64 0 96 36 96 99 0 64-35 99-97 99-61 0-95-36-95-99 0-62 34-99 96-99zm-1 164c35 0 45-28 45-65 0-40-10-65-43-65-34 0-45 26-45 65 0 36 10 65 43 65" id="aM"/><path d="M137-138c1-29-70-34-71-4 15 46 118 7 119 86 1 83-164 76-172 9l43-7c4 19 20 25 44 25 33 8 57-30 24-41C81-84 22-81 20-136c-2-80 154-74 161-7" id="aN"/><g id="k"><use transform="matrix(0.05,0,0,0.05,0,0)" xlink:href="#aG"/><use transform="matrix(0.05,0,0,0.05,10,0)" xlink:href="#aH"/><use transform="matrix(0.05,0,0,0.05,17,0)" xlink:href="#aI"/><use transform="matrix(0.05,0,0,0.05,27,0)" xlink:href="#aJ"/><use transform="matrix(0.05,0,0,0.05,37.95,0)" xlink:href="#aK"/><use transform="matrix(0.05,0,0,0.05,42.95,0)" xlink:href="#aL"/><use transform="matrix(0.05,0,0,0.05,48.900000000000006,0)" xlink:href="#aM"/><use transform="matrix(0.05,0,0,0.05,59.85,0)" xlink:href="#aN"/></g><path d="M205 0l-28-72H64L36 0H1l101-248h38L239 0h-34zm-38-99l-47-123c-12 45-31 82-46 123h93" id="aO"/><path d="M27 0v-27h64v-190l-56 39v-29l58-41h29v221h61V0H27" id="aP"/><g id="l"><use transform="matrix(0.05,0,0,0.05,0,0)" xlink:href="#aO"/><use transform="matrix(0.05,0,0,0.05,12,0)" xlink:href="#aP"/></g><path fill="#d92d2d" d="M205 0l-28-72H64L36 0H1l101-248h38L239 0h-34zm-38-99l-47-123c-12 45-31 82-46 123h93" id="aQ"/><path fill="#d92d2d" d="M24 0v-261h32V0H24" id="aR"/><path fill="#d92d2d" d="M210-169c-67 3-38 105-44 169h-31v-121c0-29-5-50-35-48C34-165 62-65 56 0H25l-1-190h30c1 10-1 24 2 32 10-44 99-50 107 0 11-21 27-35 58-36 85-2 47 119 55 194h-31v-121c0-29-5-49-35-48" id="aS"/><path fill="#d92d2d" d="M141-36C126-15 110 5 73 4 37 3 15-17 15-53c-1-64 63-63 125-63 3-35-9-54-41-54-24 1-41 7-42 31l-33-3c5-37 33-52 76-52 45 0 72 20 72 64v82c-1 20 7 32 28 27v20c-31 9-61-2-59-35zM48-53c0 20 12 33 32 33 41-3 63-29 60-74-43 2-92-5-92 41" id="aT"/><path fill="#d92d2d" d="M96-169c-40 0-48 33-48 73s9 75 48 75c24 0 41-14 43-38l32 2c-6 37-31 61-74 61-59 0-76-41-82-99-10-93 101-131 147-64 4 7 5 14 7 22l-32 3c-4-21-16-35-41-35" id="aU"/><path fill="#d92d2d" d="M100-194c63 0 86 42 84 106H49c0 40 14 67 53 68 26 1 43-12 49-29l28 8c-11 28-37 45-77 45C44 4 14-33 15-96c1-61 26-98 85-98zm52 81c6-60-76-77-97-28-3 7-6 17-6 28h103zm-74-98c8-23 27-35 38-54h36v5l-58 49H78" id="aV"/><path fill="#d92d2d" d="M117-194c89-4 53 116 60 194h-32v-121c0-31-8-49-39-48C34-167 62-67 57 0H25l-1-190h30c1 10-1 24 2 32 11-22 29-35 61-36" id="aW"/><g id="m"><use transform="matrix(0.05,0,0,0.05,0,0)" xlink:href="#aQ"/><use transform="matrix(0.05,0,0,0.05,12,0)" xlink:href="#aR"/><use transform="matrix(0.05,0,0,0.05,15.949999999999998,0)" xlink:href="#aS"/><use transform="matrix(0.05,0,0,0.05,30.899999999999995,0)" xlink:href="#aT"/><use transform="matrix(0.05,0,0,0.05,40.9,0)" xlink:href="#aU"/><use transform="matrix(0.05,0,0,0.05,49.9,0)" xlink:href="#aV"/><use transform="matrix(0.05,0,0,0.05,59.900000000000006,0)" xlink:href="#aW"/></g><path fill="#d92d2d" d="M85-194c31 0 48 13 60 33l-1-100h32l1 261h-30c-2-10 0-23-3-31C134-8 116 4 85 4 32 4 16-35 15-94c0-66 23-100 70-100zm9 24c-40 0-46 34-46 75 0 40 6 74 45 74 42 0 51-32 51-76 0-42-9-74-50-73" id="aX"/><path fill="#d92d2d" d="M100-194c63 0 86 42 84 106H49c0 40 14 67 53 68 26 1 43-12 49-29l28 8c-11 28-37 45-77 45C44 4 14-33 15-96c1-61 26-98 85-98zm52 81c6-60-76-77-97-28-3 7-6 17-6 28h103" id="aY"/><g id="n"><use transform="matrix(0.05,0,0,0.05,0,0)" xlink:href="#aX"/><use transform="matrix(0.05,0,0,0.05,10,0)" xlink:href="#aY"/></g><path fill="#d92d2d" d="M232-93c-1 65-40 97-104 97C67 4 28-28 28-90v-158h33c8 89-33 224 67 224 102 0 64-133 71-224h33v155" id="aZ"/><path fill="#d92d2d" d="M135-143c-3-34-86-38-87 0 15 53 115 12 119 90S17 21 10-45l28-5c4 36 97 45 98 0-10-56-113-15-118-90-4-57 82-63 122-42 12 7 21 19 24 35" id="ba"/><path fill="#d92d2d" d="M84 4C-5 8 30-112 23-190h32v120c0 31 7 50 39 49 72-2 45-101 50-169h31l1 190h-30c-1-10 1-25-2-33-11 22-28 36-60 37" id="bb"/><path fill="#d92d2d" d="M114-163C36-179 61-72 57 0H25l-1-190h30c1 12-1 29 2 39 6-27 23-49 58-41v29" id="bc"/><path fill="#d92d2d" d="M24-231v-30h32v30H24zM24 0v-190h32V0H24" id="bd"/><path fill="#d92d2d" d="M100-194c62-1 85 37 85 99 1 63-27 99-86 99S16-35 15-95c0-66 28-99 85-99zM99-20c44 1 53-31 53-75 0-43-8-75-51-75s-53 32-53 75 10 74 51 75" id="be"/><g id="o"><use transform="matrix(0.05,0,0,0.05,0,0)" xlink:href="#aZ"/><use transform="matrix(0.05,0,0,0.05,12.950000000000001,0)" xlink:href="#ba"/><use transform="matrix(0.05,0,0,0.05,21.950000000000003,0)" xlink:href="#bb"/><use transform="matrix(0.05,0,0,0.05,31.950000000000003,0)" xlink:href="#aT"/><use transform="matrix(0.05,0,0,0.05,41.95,0)" xlink:href="#bc"/><use transform="matrix(0.05,0,0,0.05,47.900000000000006,0)" xlink:href="#bd"/><use transform="matrix(0.05,0,0,0.05,51.85,0)" xlink:href="#be"/><use transform="matrix(0.05,0,0,0.05,61.85,0)" xlink:href="#ba"/></g><path fill="#d92d2d" d="M177-190C167-65 218 103 67 71c-23-6-38-20-44-43l32-5c15 47 100 32 89-28v-30C133-14 115 1 83 1 29 1 15-40 15-95c0-56 16-97 71-98 29-1 48 16 59 35 1-10 0-23 2-32h30zM94-22c36 0 50-32 50-73 0-42-14-75-50-75-39 0-46 34-46 75s6 73 46 73" id="bf"/><path fill="#d92d2d" d="M59-47c-2 24 18 29 38 22v24C64 9 27 4 27-40v-127H5v-23h24l9-43h21v43h35v23H59v120" id="bg"/><g id="p"><use transform="matrix(0.05,0,0,0.05,0,0)" xlink:href="#bc"/><use transform="matrix(0.05,0,0,0.05,5.95,0)" xlink:href="#aY"/><use transform="matrix(0.05,0,0,0.05,15.949999999999998,0)" xlink:href="#bf"/><use transform="matrix(0.05,0,0,0.05,25.950000000000003,0)" xlink:href="#bd"/><use transform="matrix(0.05,0,0,0.05,29.899999999999995,0)" xlink:href="#ba"/><use transform="matrix(0.05,0,0,0.05,38.9,0)" xlink:href="#bg"/><use transform="matrix(0.05,0,0,0.05,43.9,0)" xlink:href="#bc"/><use transform="matrix(0.05,0,0,0.05,49.85,0)" xlink:href="#aT"/><use transform="matrix(0.05,0,0,0.05,59.85,0)" xlink:href="#aX"/><use transform="matrix(0.05,0,0,0.05,69.85,0)" xlink:href="#be"/><use transform="matrix(0.05,0,0,0.05,79.85,0)" xlink:href="#ba"/></g><g id="q"><use transform="matrix(0.05,0,0,0.05,0,0)" xlink:href="#aC"/><use transform="matrix(0.05,0,0,0.05,10,0)" xlink:href="#aD"/><use transform="matrix(0.05,0,0,0.05,15,0)" xlink:href="#aE"/><use transform="matrix(0.05,0,0,0.05,25,0)" xlink:href="#aD"/><use transform="matrix(0.05,0,0,0.05,30,0)" xlink:href="#aC"/></g><path d="M135-194c53 0 70 44 70 98 0 56-19 98-73 100-31 1-45-17-59-34 3 33 2 69 2 105H25l-1-265h48c2 10 0 23 3 31 11-24 29-35 60-35zM114-30c33 0 39-31 40-66 0-38-9-64-40-64-56 0-55 130 0 130" id="bh"/><path d="M185-48c-13 30-37 53-82 52C43 2 14-33 14-96s30-98 90-98c62 0 83 45 84 108H66c0 31 8 55 39 56 18 0 30-7 34-22zm-45-69c5-46-57-63-70-21-2 6-4 13-4 21h74" id="bi"/><path d="M121-226c-27-7-43 5-38 36h38v33H83V0H34v-157H6v-33h28c-9-59 32-81 87-68v32" id="bj"/><path d="M25 0v-261h50V0H25" id="bk"/><g id="r"><use transform="matrix(0.05,0,0,0.05,0,0)" xlink:href="#bh"/><use transform="matrix(0.05,0,0,0.05,10.950000000000001,0)" xlink:href="#bi"/><use transform="matrix(0.05,0,0,0.05,20.950000000000003,0)" xlink:href="#aH"/><use transform="matrix(0.05,0,0,0.05,27.950000000000003,0)" xlink:href="#bj"/><use transform="matrix(0.05,0,0,0.05,33.900000000000006,0)" xlink:href="#bk"/></g><path d="M182-182c0 78-84 86-111 141h115V0H12c-6-101 99-100 120-180 1-22-12-31-33-32-23 0-32 14-35 34l-49-3c5-45 32-70 84-70 51 0 83 22 83 69" id="bl"/><g id="s"><use transform="matrix(0.05,0,0,0.05,0,0)" xlink:href="#aC"/><use transform="matrix(0.05,0,0,0.05,10,0)" xlink:href="#aD"/><use transform="matrix(0.05,0,0,0.05,15,0)" xlink:href="#aE"/><use transform="matrix(0.05,0,0,0.05,25,0)" xlink:href="#aD"/><use transform="matrix(0.05,0,0,0.05,30,0)" xlink:href="#bl"/></g><path d="M135-194c87-1 58 113 63 194h-50c-7-57 23-157-34-157-59 0-34 97-39 157H25l-1-190h47c2 12-1 28 3 38 12-26 28-41 61-42" id="bm"/><path d="M220-157c-53 9-28 100-34 157h-49v-107c1-27-5-49-29-50C55-147 81-57 75 0H25l-1-190h47c2 12-1 28 3 38 10-53 101-56 108 0 13-22 24-43 59-42 82 1 51 116 57 194h-49v-107c-1-25-5-48-29-50" id="bn"/><path d="M133-34C117-15 103 5 69 4 32 3 11-16 11-54c-1-60 55-63 116-61 1-26-3-47-28-47-18 1-26 9-28 27l-52-2c7-38 36-58 82-57s74 22 75 68l1 82c-1 14 12 18 25 15v27c-30 8-71 5-69-32zm-48 3c29 0 43-24 42-57-32 0-66-3-65 30 0 17 8 27 23 27" id="bo"/><path d="M110-194c64 0 96 36 96 99 0 64-35 99-97 99-61 0-95-36-95-99 0-62 34-99 96-99zm-1 164c35 0 45-28 45-65 0-40-10-65-43-65-34 0-45 26-45 65 0 36 10 65 43 65zM81-208v-5l45-51h45v8l-60 48H81" id="bp"/><g id="t"><use transform="matrix(0.05,0,0,0.05,0,0)" xlink:href="#aK"/><use transform="matrix(0.05,0,0,0.05,5,0)" xlink:href="#bm"/><use transform="matrix(0.05,0,0,0.05,15.950000000000001,0)" xlink:href="#bj"/><use transform="matrix(0.05,0,0,0.05,21.900000000000002,0)" xlink:href="#aM"/><use transform="matrix(0.05,0,0,0.05,32.85,0)" xlink:href="#aH"/><use transform="matrix(0.05,0,0,0.05,39.85,0)" xlink:href="#bn"/><use transform="matrix(0.05,0,0,0.05,55.85,0)" xlink:href="#bo"/><use transform="matrix(0.05,0,0,0.05,65.85,0)" xlink:href="#aG"/><use transform="matrix(0.05,0,0,0.05,75.85,0)" xlink:href="#aK"/><use transform="matrix(0.05,0,0,0.05,80.85,0)" xlink:href="#bp"/><use transform="matrix(0.05,0,0,0.05,91.8,0)" xlink:href="#bm"/></g><path d="M85 4C-2 5 27-109 22-190h50c7 57-23 150 33 157 60-5 35-97 40-157h50l1 190h-47c-2-12 1-28-3-38-12 25-28 42-61 42" id="bq"/><g id="u"><use transform="matrix(0.05,0,0,0.05,0,0)" xlink:href="#aM"/><use transform="matrix(0.05,0,0,0.05,10.950000000000001,0)" xlink:href="#aG"/><use transform="matrix(0.05,0,0,0.05,20.950000000000003,0)" xlink:href="#bq"/><use transform="matrix(0.05,0,0,0.05,31.900000000000006,0)" xlink:href="#bk"/><use transform="matrix(0.05,0,0,0.05,36.900000000000006,0)" xlink:href="#aL"/><use transform="matrix(0.05,0,0,0.05,42.85000000000001,0)" xlink:href="#bo"/></g><path fill="#834187" d="M85-194c31 0 48 13 60 33l-1-100h32l1 261h-30c-2-10 0-23-3-31C134-8 116 4 85 4 32 4 16-35 15-94c0-66 23-100 70-100zm9 24c-40 0-46 34-46 75 0 40 6 74 45 74 42 0 51-32 51-76 0-42-9-74-50-73" id="br"/><path fill="#834187" d="M141-36C126-15 110 5 73 4 37 3 15-17 15-53c-1-64 63-63 125-63 3-35-9-54-41-54-24 1-41 7-42 31l-33-3c5-37 33-52 76-52 45 0 72 20 72 64v82c-1 20 7 32 28 27v20c-31 9-61-2-59-35zM48-53c0 20 12 33 32 33 41-3 63-29 60-74-43 2-92-5-92 41" id="bs"/><path fill="#834187" d="M59-47c-2 24 18 29 38 22v24C64 9 27 4 27-40v-127H5v-23h24l9-43h21v43h35v23H59v120" id="bt"/><path fill="#834187" d="M100-194c62-1 85 37 85 99 1 63-27 99-86 99S16-35 15-95c0-66 28-99 85-99zM99-20c44 1 53-31 53-75 0-43-8-75-51-75s-53 32-53 75 10 74 51 75" id="bu"/><path fill="#834187" d="M135-143c-3-34-86-38-87 0 15 53 115 12 119 90S17 21 10-45l28-5c4 36 97 45 98 0-10-56-113-15-118-90-4-57 82-63 122-42 12 7 21 19 24 35" id="bv"/><g id="v"><use transform="matrix(0.05,0,0,0.05,0,0)" xlink:href="#br"/><use transform="matrix(0.05,0,0,0.05,10,0)" xlink:href="#bs"/><use transform="matrix(0.05,0,0,0.05,20,0)" xlink:href="#bt"/><use transform="matrix(0.05,0,0,0.05,25,0)" xlink:href="#bu"/><use transform="matrix(0.05,0,0,0.05,35,0)" xlink:href="#bv"/></g><path fill="#834187" d="M115-194c55 1 70 41 70 98S169 2 115 4C84 4 66-9 55-30l1 105H24l-1-265h31l2 30c10-21 28-34 59-34zm-8 174c40 0 45-34 45-75s-6-73-45-74c-42 0-51 32-51 76 0 43 10 73 51 73" id="bw"/><path fill="#834187" d="M114-163C36-179 61-72 57 0H25l-1-190h30c1 12-1 29 2 39 6-27 23-49 58-41v29" id="bx"/><path fill="#834187" d="M101-234c-31-9-42 10-38 44h38v23H63V0H32v-167H5v-23h27c-7-52 17-82 69-68v24" id="by"/><path fill="#834187" d="M100-194c63 0 86 42 84 106H49c0 40 14 67 53 68 26 1 43-12 49-29l28 8c-11 28-37 45-77 45C44 4 14-33 15-96c1-61 26-98 85-98zm52 81c6-60-76-77-97-28-3 7-6 17-6 28h103" id="bz"/><g id="w"><use transform="matrix(0.05,0,0,0.05,0,0)" xlink:href="#bw"/><use transform="matrix(0.05,0,0,0.05,10,0)" xlink:href="#bx"/><use transform="matrix(0.05,0,0,0.05,15.949999999999998,0)" xlink:href="#bu"/><use transform="matrix(0.05,0,0,0.05,25.950000000000003,0)" xlink:href="#by"/><use transform="matrix(0.05,0,0,0.05,30.950000000000003,0)" xlink:href="#bz"/><use transform="matrix(0.05,0,0,0.05,40.95,0)" xlink:href="#bv"/><use transform="matrix(0.05,0,0,0.05,49.95,0)" xlink:href="#bu"/><use transform="matrix(0.05,0,0,0.05,59.95,0)" xlink:href="#bx"/></g><path fill="#834187" d="M24-231v-30h32v30H24zM24 0v-190h32V0H24" id="bA"/><g id="x"><use transform="matrix(0.05,0,0,0.05,0,0)" xlink:href="#bt"/><use transform="matrix(0.05,0,0,0.05,5,0)" xlink:href="#bA"/><use transform="matrix(0.05,0,0,0.05,8.95,0)" xlink:href="#bw"/><use transform="matrix(0.05,0,0,0.05,18.95,0)" xlink:href="#bu"/></g><g id="y"><use transform="matrix(0.05,0,0,0.05,0,0)" xlink:href="#br"/><use transform="matrix(0.05,0,0,0.05,10,0)" xlink:href="#bz"/></g><path fill="#834187" d="M96-169c-40 0-48 33-48 73s9 75 48 75c24 0 41-14 43-38l32 2c-6 37-31 61-74 61-59 0-76-41-82-99-10-93 101-131 147-64 4 7 5 14 7 22l-32 3c-4-21-16-35-41-35" id="bB"/><path fill="#834187" d="M24 0v-261h32V0H24" id="bC"/><g id="z"><use transform="matrix(0.05,0,0,0.05,0,0)" xlink:href="#bB"/><use transform="matrix(0.05,0,0,0.05,9,0)" xlink:href="#bC"/><use transform="matrix(0.05,0,0,0.05,12.949999999999998,0)" xlink:href="#bs"/><use transform="matrix(0.05,0,0,0.05,22.95,0)" xlink:href="#bv"/><use transform="matrix(0.05,0,0,0.05,31.950000000000003,0)" xlink:href="#bz"/><use transform="matrix(0.05,0,0,0.05,41.95,0)" xlink:href="#bv"/></g><path fill="#0c7cba" d="M96-169c-40 0-48 33-48 73s9 75 48 75c24 0 41-14 43-38l32 2c-6 37-31 61-74 61-59 0-76-41-82-99-10-93 101-131 147-64 4 7 5 14 7 22l-32 3c-4-21-16-35-41-35" id="bD"/><path fill="#0c7cba" d="M118-194c89-4 53 116 60 194h-32v-121c0-31-8-49-39-48C35-167 63-67 58 0H26l-1-190h30c1 10-1 24 2 32 11-22 29-35 61-36zm47-64c-3 23-9 48-36 47-26-1-65-44-74 0H39c4-23 8-48 36-47s64 44 74 0h16" id="bE"/><path fill="#0c7cba" d="M68-38c1 34 0 65-14 84H32c9-13 17-26 17-46H33v-38h35" id="bF"/><g id="A"><use transform="matrix(0.05,0,0,0.05,0,0)" xlink:href="#bD"/><use transform="matrix(0.05,0,0,0.05,9,0)" xlink:href="#av"/><use transform="matrix(0.05,0,0,0.05,19,0)" xlink:href="#ax"/><use transform="matrix(0.05,0,0,0.05,29,0)" xlink:href="#at"/><use transform="matrix(0.05,0,0,0.05,34,0)" xlink:href="#ah"/><use transform="matrix(0.05,0,0,0.05,39.95,0)" xlink:href="#af"/><use transform="matrix(0.05,0,0,0.05,49.95,0)" xlink:href="#as"/><use transform="matrix(0.05,0,0,0.05,58.95,0)" xlink:href="#an"/><use transform="matrix(0.05,0,0,0.05,68.95,0)" xlink:href="#bE"/><use transform="matrix(0.05,0,0,0.05,78.95,0)" xlink:href="#af"/><use transform="matrix(0.05,0,0,0.05,88.95,0)" xlink:href="#bF"/></g><g id="B"><use transform="matrix(0.05,0,0,0.05,0,0)" xlink:href="#au"/><use transform="matrix(0.05,0,0,0.05,10,0)" xlink:href="#af"/><use transform="matrix(0.05,0,0,0.05,20,0)" xlink:href="#at"/><use transform="matrix(0.05,0,0,0.05,25,0)" xlink:href="#av"/><use transform="matrix(0.05,0,0,0.05,35,0)" xlink:href="#as"/></g><g id="C"><use transform="matrix(0.05,0,0,0.05,0,0)" xlink:href="#aA"/><use transform="matrix(0.05,0,0,0.05,10,0)" xlink:href="#ah"/><use transform="matrix(0.05,0,0,0.05,15.949999999999998,0)" xlink:href="#ae"/><use transform="matrix(0.05,0,0,0.05,19.9,0)" xlink:href="#am"/><use transform="matrix(0.05,0,0,0.05,28.899999999999995,0)" xlink:href="#af"/><use transform="matrix(0.05,0,0,0.05,38.9,0)" xlink:href="#au"/><use transform="matrix(0.05,0,0,0.05,48.9,0)" xlink:href="#av"/><use transform="matrix(0.05,0,0,0.05,58.900000000000006,0)" xlink:href="#as"/></g><path fill="#834187" d="M210-169c-67 3-38 105-44 169h-31v-121c0-29-5-50-35-48C34-165 62-65 56 0H25l-1-190h30c1 10-1 24 2 32 10-44 99-50 107 0 11-21 27-35 58-36 85-2 47 119 55 194h-31v-121c0-29-5-49-35-48" id="bG"/><g id="D"><use transform="matrix(0.05,0,0,0.05,0,0)" xlink:href="#bG"/><use transform="matrix(0.05,0,0,0.05,14.950000000000001,0)" xlink:href="#bu"/><use transform="matrix(0.05,0,0,0.05,24.950000000000003,0)" xlink:href="#br"/><use transform="matrix(0.05,0,0,0.05,34.95,0)" xlink:href="#bA"/><use transform="matrix(0.05,0,0,0.05,38.900000000000006,0)" xlink:href="#by"/><use transform="matrix(0.05,0,0,0.05,43.900000000000006,0)" xlink:href="#bA"/><use transform="matrix(0.05,0,0,0.05,47.85000000000001,0)" xlink:href="#bB"/><use transform="matrix(0.05,0,0,0.05,56.85,0)" xlink:href="#bs"/><use transform="matrix(0.05,0,0,0.05,66.85000000000001,0)" xlink:href="#bx"/></g><g id="E"><use transform="matrix(0.05,0,0,0.05,0,0)" xlink:href="#br"/><use transform="matrix(0.05,0,0,0.05,10,0)" xlink:href="#bs"/><use transform="matrix(0.05,0,0,0.05,20,0)" xlink:href="#bt"/><use transform="matrix(0.05,0,0,0.05,25,0)" xlink:href="#bu"/><use transform="matrix(0.05,0,0,0.05,35,0)" xlink:href="#bv"/></g><g id="F"><use transform="matrix(0.05,0,0,0.05,0,0)" xlink:href="#ba"/><use transform="matrix(0.05,0,0,0.05,9,0)" xlink:href="#aY"/><use transform="matrix(0.05,0,0,0.05,19,0)" xlink:href="#bf"/><use transform="matrix(0.05,0,0,0.05,29,0)" xlink:href="#bb"/><use transform="matrix(0.05,0,0,0.05,39,0)" xlink:href="#bd"/><use transform="matrix(0.05,0,0,0.05,42.95,0)" xlink:href="#aS"/><use transform="matrix(0.05,0,0,0.05,57.900000000000006,0)" xlink:href="#bd"/><use transform="matrix(0.05,0,0,0.05,61.85,0)" xlink:href="#aY"/><use transform="matrix(0.05,0,0,0.05,71.85000000000001,0)" xlink:href="#aW"/><use transform="matrix(0.05,0,0,0.05,81.85000000000001,0)" xlink:href="#bg"/><use transform="matrix(0.05,0,0,0.05,86.85000000000001,0)" xlink:href="#be"/></g><path fill="#834187" d="M117-194c89-4 53 116 60 194h-32v-121c0-31-8-49-39-48C34-167 62-67 57 0H25l-1-190h30c1 10-1 24 2 32 11-22 29-35 61-36" id="bH"/><g id="G"><use transform="matrix(0.05,0,0,0.05,0,0)" xlink:href="#bs"/><use transform="matrix(0.05,0,0,0.05,10,0)" xlink:href="#bC"/><use transform="matrix(0.05,0,0,0.05,13.949999999999998,0)" xlink:href="#bG"/><use transform="matrix(0.05,0,0,0.05,28.899999999999995,0)" xlink:href="#bs"/><use transform="matrix(0.05,0,0,0.05,38.9,0)" xlink:href="#bB"/><use transform="matrix(0.05,0,0,0.05,47.9,0)" xlink:href="#bz"/><use transform="matrix(0.05,0,0,0.05,57.900000000000006,0)" xlink:href="#bH"/><use transform="matrix(0.05,0,0,0.05,67.9,0)" xlink:href="#bs"/><use transform="matrix(0.05,0,0,0.05,77.9,0)" xlink:href="#bx"/></g><g id="H"><use transform="matrix(0.05,0,0,0.05,0,0)" xlink:href="#bw"/><use transform="matrix(0.05,0,0,0.05,10,0)" xlink:href="#bz"/><use transform="matrix(0.05,0,0,0.05,20,0)" xlink:href="#bx"/><use transform="matrix(0.05,0,0,0.05,25.950000000000003,0)" xlink:href="#by"/><use transform="matrix(0.05,0,0,0.05,30.950000000000003,0)" xlink:href="#bA"/><use transform="matrix(0.05,0,0,0.05,34.9,0)" xlink:href="#bC"/></g><g id="I"><use transform="matrix(0.05,0,0,0.05,0,0)" xlink:href="#am"/><use transform="matrix(0.05,0,0,0.05,9,0)" xlink:href="#an"/><use transform="matrix(0.05,0,0,0.05,19,0)" xlink:href="#ah"/><use transform="matrix(0.05,0,0,0.05,24.95,0)" xlink:href="#ae"/><use transform="matrix(0.05,0,0,0.05,28.899999999999995,0)" xlink:href="#aB"/><use transform="matrix(0.05,0,0,0.05,33.9,0)" xlink:href="#ae"/><use transform="matrix(0.05,0,0,0.05,37.85,0)" xlink:href="#bD"/><use transform="matrix(0.05,0,0,0.05,46.85,0)" xlink:href="#af"/><use transform="matrix(0.05,0,0,0.05,56.85,0)" xlink:href="#ah"/></g><g id="J"><use transform="matrix(0.05,0,0,0.05,0,0)" xlink:href="#ay"/><use transform="matrix(0.05,0,0,0.05,10,0)" xlink:href="#as"/><use transform="matrix(0.05,0,0,0.05,19,0)" xlink:href="#an"/><use transform="matrix(0.05,0,0,0.05,29,0)" xlink:href="#ah"/></g><g id="K"><use transform="matrix(0.05,0,0,0.05,0,0)" xlink:href="#aS"/><use transform="matrix(0.05,0,0,0.05,14.950000000000001,0)" xlink:href="#aT"/><use transform="matrix(0.05,0,0,0.05,24.950000000000003,0)" xlink:href="#aW"/><use transform="matrix(0.05,0,0,0.05,34.95,0)" xlink:href="#bg"/><use transform="matrix(0.05,0,0,0.05,39.95,0)" xlink:href="#aY"/><use transform="matrix(0.05,0,0,0.05,49.95,0)" xlink:href="#aW"/><use transform="matrix(0.05,0,0,0.05,59.95,0)" xlink:href="#aY"/><use transform="matrix(0.05,0,0,0.05,69.95,0)" xlink:href="#bc"/></g><path fill="#d92d2d" d="M9 0v-24l116-142H16v-24h144v24L44-24h123V0H9" id="bI"/><g id="L"><use transform="matrix(0.05,0,0,0.05,0,0)" xlink:href="#aT"/><use transform="matrix(0.05,0,0,0.05,10,0)" xlink:href="#aU"/><use transform="matrix(0.05,0,0,0.05,19,0)" xlink:href="#bg"/><use transform="matrix(0.05,0,0,0.05,24,0)" xlink:href="#bb"/><use transform="matrix(0.05,0,0,0.05,34,0)" xlink:href="#aT"/><use transform="matrix(0.05,0,0,0.05,44,0)" xlink:href="#aR"/><use transform="matrix(0.05,0,0,0.05,47.95,0)" xlink:href="#bd"/><use transform="matrix(0.05,0,0,0.05,51.900000000000006,0)" xlink:href="#bI"/><use transform="matrix(0.05,0,0,0.05,60.900000000000006,0)" xlink:href="#aT"/><use transform="matrix(0.05,0,0,0.05,70.9,0)" xlink:href="#aX"/><use transform="matrix(0.05,0,0,0.05,80.9,0)" xlink:href="#be"/></g><g id="M"><use transform="matrix(0.05,0,0,0.05,0,0)" xlink:href="#bD"/><use transform="matrix(0.05,0,0,0.05,9,0)" xlink:href="#av"/><use transform="matrix(0.05,0,0,0.05,19,0)" xlink:href="#ax"/><use transform="matrix(0.05,0,0,0.05,29,0)" xlink:href="#at"/><use transform="matrix(0.05,0,0,0.05,34,0)" xlink:href="#ah"/><use transform="matrix(0.05,0,0,0.05,39.95,0)" xlink:href="#af"/><use transform="matrix(0.05,0,0,0.05,49.95,0)" xlink:href="#as"/><use transform="matrix(0.05,0,0,0.05,58.95,0)" xlink:href="#an"/><use transform="matrix(0.05,0,0,0.05,68.95,0)" xlink:href="#bE"/><use transform="matrix(0.05,0,0,0.05,78.95,0)" xlink:href="#af"/></g><g id="N"><use transform="matrix(0.05,0,0,0.05,0,0)" xlink:href="#bD"/><use transform="matrix(0.05,0,0,0.05,9,0)" xlink:href="#av"/><use transform="matrix(0.05,0,0,0.05,19,0)" xlink:href="#ah"/><use transform="matrix(0.05,0,0,0.05,24.95,0)" xlink:href="#ah"/><use transform="matrix(0.05,0,0,0.05,30.899999999999995,0)" xlink:href="#an"/><use transform="matrix(0.05,0,0,0.05,40.9,0)" xlink:href="#bD"/><use transform="matrix(0.05,0,0,0.05,49.9,0)" xlink:href="#at"/><use transform="matrix(0.05,0,0,0.05,54.900000000000006,0)" xlink:href="#af"/></g><path fill="#0c7cba" d="M0 4l72-265h28L28 4H0" id="bJ"/><g id="O"><use transform="matrix(0.05,0,0,0.05,0,0)" xlink:href="#as"/><use transform="matrix(0.05,0,0,0.05,9,0)" xlink:href="#ae"/><use transform="matrix(0.05,0,0,0.05,12.949999999999998,0)" xlink:href="#bJ"/><use transform="matrix(0.05,0,0,0.05,17.95,0)" xlink:href="#ax"/><use transform="matrix(0.05,0,0,0.05,27.950000000000003,0)" xlink:href="#av"/></g><path fill="#834187" d="M177-190C167-65 218 103 67 71c-23-6-38-20-44-43l32-5c15 47 100 32 89-28v-30C133-14 115 1 83 1 29 1 15-40 15-95c0-56 16-97 71-98 29-1 48 16 59 35 1-10 0-23 2-32h30zM94-22c36 0 50-32 50-73 0-42-14-75-50-75-39 0-46 34-46 75s6 73 46 73" id="bK"/><g id="P"><use transform="matrix(0.05,0,0,0.05,0,0)" xlink:href="#bC"/><use transform="matrix(0.05,0,0,0.05,3.95,0)" xlink:href="#bu"/><use transform="matrix(0.05,0,0,0.05,13.949999999999998,0)" xlink:href="#bK"/><use transform="matrix(0.05,0,0,0.05,23.95,0)" xlink:href="#bA"/><use transform="matrix(0.05,0,0,0.05,27.899999999999995,0)" xlink:href="#bH"/></g><g id="Q"><use transform="matrix(0.05,0,0,0.05,0,0)" xlink:href="#aC"/><use transform="matrix(0.05,0,0,0.05,10,0)" xlink:href="#aD"/><use transform="matrix(0.05,0,0,0.05,15,0)" xlink:href="#aE"/><use transform="matrix(0.05,0,0,0.05,25,0)" xlink:href="#aD"/><use transform="matrix(0.05,0,0,0.05,30,0)" xlink:href="#aE"/></g><path d="M195-6C206 82 75 100 31 46c-4-6-6-13-8-21l49-6c3 16 16 24 34 25 40 0 42-37 40-79-11 22-30 35-61 35-53 0-70-43-70-97 0-56 18-96 73-97 30 0 46 14 59 34l2-30h47zm-90-29c32 0 41-27 41-63 0-35-9-62-40-62-32 0-39 29-40 63 0 36 9 62 39 62" id="bL"/><g id="R"><use transform="matrix(0.05,0,0,0.05,0,0)" xlink:href="#bk"/><use transform="matrix(0.05,0,0,0.05,5,0)" xlink:href="#aM"/><use transform="matrix(0.05,0,0,0.05,15.950000000000001,0)" xlink:href="#bL"/><use transform="matrix(0.05,0,0,0.05,26.900000000000002,0)" xlink:href="#aK"/><use transform="matrix(0.05,0,0,0.05,31.900000000000002,0)" xlink:href="#bm"/></g><path d="M139-81c0-46-55-55-73-27H18l9-140h149v37H72l-4 63c44-38 133-4 122 66C201 21 21 35 11-62l49-4c5 18 15 30 39 30 26 0 40-18 40-45" id="bM"/><g id="S"><use transform="matrix(0.05,0,0,0.05,0,0)" xlink:href="#aC"/><use transform="matrix(0.05,0,0,0.05,10,0)" xlink:href="#aD"/><use transform="matrix(0.05,0,0,0.05,15,0)" xlink:href="#aE"/><use transform="matrix(0.05,0,0,0.05,25,0)" xlink:href="#aD"/><use transform="matrix(0.05,0,0,0.05,30,0)" xlink:href="#bM"/></g><g id="T"><use transform="matrix(0.05,0,0,0.05,0,0)" xlink:href="#bo"/><use transform="matrix(0.05,0,0,0.05,10,0)" xlink:href="#aG"/><use transform="matrix(0.05,0,0,0.05,20,0)" xlink:href="#aG"/><use transform="matrix(0.05,0,0,0.05,30,0)" xlink:href="#bi"/><use transform="matrix(0.05,0,0,0.05,40,0)" xlink:href="#aN"/><use transform="matrix(0.05,0,0,0.05,50,0)" xlink:href="#aM"/></g><use transform="matrix(0.05,0,0,0.05,0,0)" xlink:href="#bo" id="U"/><path d="M128 0H69L1-190h53L99-40l48-150h52" id="bN"/><g id="V"><use transform="matrix(0.05,0,0,0.05,0,0)" xlink:href="#bm"/><use transform="matrix(0.05,0,0,0.05,10.950000000000001,0)" xlink:href="#bo"/><use transform="matrix(0.05,0,0,0.05,20.950000000000003,0)" xlink:href="#bN"/><use transform="matrix(0.05,0,0,0.05,30.950000000000003,0)" xlink:href="#bi"/><use transform="matrix(0.05,0,0,0.05,40.95,0)" xlink:href="#bL"/><use transform="matrix(0.05,0,0,0.05,51.900000000000006,0)" xlink:href="#bo"/><use transform="matrix(0.05,0,0,0.05,61.900000000000006,0)" xlink:href="#aG"/><use transform="matrix(0.05,0,0,0.05,71.9,0)" xlink:href="#aK"/><use transform="matrix(0.05,0,0,0.05,76.9,0)" xlink:href="#bp"/><use transform="matrix(0.05,0,0,0.05,87.85000000000001,0)" xlink:href="#bm"/></g><path fill="#fcc438" d="M133-34C117-15 103 5 69 4 32 3 11-16 11-54c-1-60 55-63 116-61 1-26-3-47-28-47-18 1-26 9-28 27l-52-2c7-38 36-58 82-57s74 22 75 68l1 82c-1 14 12 18 25 15v27c-30 8-71 5-69-32zm-48 3c29 0 43-24 42-57-32 0-66-3-65 30 0 17 8 27 23 27" id="bO"/><path fill="#fcc438" d="M190-63c-7 42-38 67-86 67-59 0-84-38-90-98-12-110 154-137 174-36l-49 2c-2-19-15-32-35-32-30 0-35 28-38 64-6 74 65 87 74 30" id="bP"/><path fill="#fcc438" d="M185-48c-13 30-37 53-82 52C43 2 14-33 14-96s30-98 90-98c62 0 83 45 84 108H66c0 31 8 55 39 56 18 0 30-7 34-22zm-45-69c5-46-57-63-70-21-2 6-4 13-4 21h74" id="bQ"/><path fill="#fcc438" d="M137-138c1-29-70-34-71-4 15 46 118 7 119 86 1 83-164 76-172 9l43-7c4 19 20 25 44 25 33 8 57-30 24-41C81-84 22-81 20-136c-2-80 154-74 161-7" id="bR"/><path fill="#fcc438" d="M110-194c64 0 96 36 96 99 0 64-35 99-97 99-61 0-95-36-95-99 0-62 34-99 96-99zm-1 164c35 0 45-28 45-65 0-40-10-65-43-65-34 0-45 26-45 65 0 36 10 65 43 65" id="bS"/><g id="W"><use transform="matrix(0.05,0,0,0.05,0,0)" xlink:href="#bO"/><use transform="matrix(0.05,0,0,0.05,10,0)" xlink:href="#bP"/><use transform="matrix(0.05,0,0,0.05,20,0)" xlink:href="#bP"/><use transform="matrix(0.05,0,0,0.05,30,0)" xlink:href="#bQ"/><use transform="matrix(0.05,0,0,0.05,40,0)" xlink:href="#bR"/><use transform="matrix(0.05,0,0,0.05,50,0)" xlink:href="#bS"/></g><use transform="matrix(0.05,0,0,0.05,0,0)" xlink:href="#bO" id="X"/><path fill="#fcc438" d="M135-194c53 0 70 44 70 98 0 56-19 98-73 100-31 1-45-17-59-34 3 33 2 69 2 105H25l-1-265h48c2 10 0 23 3 31 11-24 29-35 60-35zM114-30c33 0 39-31 40-66 0-38-9-64-40-64-56 0-55 130 0 130" id="bT"/><path fill="#fcc438" d="M135-194c87-1 58 113 63 194h-50c-7-57 23-157-34-157-59 0-34 97-39 157H25l-1-190h47c2 12-1 28 3 38 12-26 28-41 61-42" id="bU"/><path fill="#fcc438" d="M115-3C79 11 28 4 28-45v-112H4v-33h27l15-45h31v45h36v33H77v99c-1 23 16 31 38 25v30" id="bV"/><path fill="#fcc438" d="M25 0v-261h50V0H25" id="bW"/><g id="Y"><use transform="matrix(0.05,0,0,0.05,0,0)" xlink:href="#bT"/><use transform="matrix(0.05,0,0,0.05,10.950000000000001,0)" xlink:href="#bO"/><use transform="matrix(0.05,0,0,0.05,20.950000000000003,0)" xlink:href="#bU"/><use transform="matrix(0.05,0,0,0.05,31.900000000000006,0)" xlink:href="#bV"/><use transform="matrix(0.05,0,0,0.05,37.85000000000001,0)" xlink:href="#bO"/><use transform="matrix(0.05,0,0,0.05,47.85000000000001,0)" xlink:href="#bW"/><use transform="matrix(0.05,0,0,0.05,52.85,0)" xlink:href="#bW"/><use transform="matrix(0.05,0,0,0.05,57.85,0)" xlink:href="#bO"/></g><path fill="#fcc438" d="M135-150c-39-12-60 13-60 57V0H25l-1-190h47c2 13-1 29 3 40 6-28 27-53 61-41v41" id="bX"/><path fill="#fcc438" d="M121-226c-27-7-43 5-38 36h38v33H83V0H34v-157H6v-33h28c-9-59 32-81 87-68v32" id="bY"/><g id="Z"><use transform="matrix(0.05,0,0,0.05,0,0)" xlink:href="#bT"/><use transform="matrix(0.05,0,0,0.05,10.950000000000001,0)" xlink:href="#bX"/><use transform="matrix(0.05,0,0,0.05,17.950000000000003,0)" xlink:href="#bS"/><use transform="matrix(0.05,0,0,0.05,28.900000000000006,0)" xlink:href="#bY"/><use transform="matrix(0.05,0,0,0.05,34.85000000000001,0)" xlink:href="#bQ"/><use transform="matrix(0.05,0,0,0.05,44.85000000000001,0)" xlink:href="#bR"/><use transform="matrix(0.05,0,0,0.05,54.85,0)" xlink:href="#bS"/><use transform="matrix(0.05,0,0,0.05,65.80000000000001,0)" xlink:href="#bX"/></g><g id="aa"><use transform="matrix(0.05,0,0,0.05,0,0)" xlink:href="#aC"/><use transform="matrix(0.05,0,0,0.05,10,0)" xlink:href="#aD"/><use transform="matrix(0.05,0,0,0.05,15,0)" xlink:href="#aE"/><use transform="matrix(0.05,0,0,0.05,25,0)" xlink:href="#aD"/><use transform="matrix(0.05,0,0,0.05,30,0)" xlink:href="#bM"/><use transform="matrix(0.05,0,0,0.05,40,0)" xlink:href="#aD"/><use transform="matrix(0.05,0,0,0.05,45,0)" xlink:href="#aF"/></g><g id="ab"><use transform="matrix(0.05,0,0,0.05,0,0)" xlink:href="#bj"/><use transform="matrix(0.05,0,0,0.05,5.95,0)" xlink:href="#bq"/><use transform="matrix(0.05,0,0,0.05,16.900000000000002,0)" xlink:href="#bm"/><use transform="matrix(0.05,0,0,0.05,27.85,0)" xlink:href="#aG"/><use transform="matrix(0.05,0,0,0.05,37.85,0)" xlink:href="#aK"/><use transform="matrix(0.05,0,0,0.05,42.85,0)" xlink:href="#aM"/><use transform="matrix(0.05,0,0,0.05,53.800000000000004,0)" xlink:href="#bm"/><use transform="matrix(0.05,0,0,0.05,64.75,0)" xlink:href="#bi"/><use transform="matrix(0.05,0,0,0.05,74.75,0)" xlink:href="#aN"/></g><g id="ac"><use transform="matrix(0.05,0,0,0.05,0,0)" xlink:href="#bh"/><use transform="matrix(0.05,0,0,0.05,10.950000000000001,0)" xlink:href="#aH"/><use transform="matrix(0.05,0,0,0.05,17.950000000000003,0)" xlink:href="#aM"/><use transform="matrix(0.05,0,0,0.05,28.900000000000006,0)" xlink:href="#bj"/><use transform="matrix(0.05,0,0,0.05,34.85000000000001,0)" xlink:href="#bi"/><use transform="matrix(0.05,0,0,0.05,44.85000000000001,0)" xlink:href="#aN"/><use transform="matrix(0.05,0,0,0.05,54.85,0)" xlink:href="#aM"/><use transform="matrix(0.05,0,0,0.05,65.80000000000001,0)" xlink:href="#aH"/></g></defs></g></svg>